<svg xmlns="http://www.w3.org/2000/svg"  viewBox="0 0 100 100" width="50px" height="50px"><path d="M 16.667969 10 C 13.001969 10 10 13.001969 10 16.667969 L 10 83.333984 C 10 86.998984 13.001969 90 16.667969 90 L 83.333984 90 C 86.998984 90 90 86.998031 90 83.332031 L 90 16.667969 C 90 13.001969 86.998031 10 83.332031 10 L 16.667969 10 z M 16.667969 16.667969 L 83.333984 16.667969 L 83.333984 83.333984 L 16.667969 83.333984 L 16.667969 16.667969 z M 36.667969 26.667969 C 31.146969 26.667969 26.667969 31.145969 26.667969 36.667969 L 26.667969 49.996094 C 26.667969 55.519094 31.146969 59.996094 36.667969 59.996094 C 42.188969 59.996094 46.667969 55.520094 46.667969 49.996094 L 40 49.996094 C 40 51.837094 38.508969 53.330078 36.667969 53.330078 C 34.826969 53.330078 33.333984 51.837094 33.333984 49.996094 L 33.333984 36.667969 C 33.333984 34.826969 34.827969 33.333984 36.667969 33.333984 C 38.507969 33.333984 40 34.826969 40 36.667969 L 46.667969 36.667969 C 46.667969 31.145969 42.188969 26.667969 36.667969 26.667969 z M 50 26.667969 L 58.332031 60 L 65 60 L 73.332031 26.667969 L 66.462891 26.667969 L 61.667969 45.845703 L 56.871094 26.667969 L 50 26.667969 z M 26.667969 66.667969 L 26.667969 73.332031 L 73.333984 73.332031 L 73.333984 66.667969 L 26.667969 66.667969 z"/></svg>