<svg xmlns="http://www.w3.org/2000/svg"  viewBox="0 0 512 512" width="30px" height="30px"><path d="M 100 20 C 94.477 20 90 24.477 90 30 L 90 490 C 90 495.522 94.477 500 100 500 L 420 500 C 425.522 500 430 495.522 430 490 L 430 120 C 430 118.317 429.52831 116.59797 428.82031 115.29297 C 427.62231 113.04397 432.68831 118.70769 337.07031 22.929688 C 333.65831 19.518687 329.554 20.054 329.25 20 L 100 20 z M 110 40 L 319.33203 40 L 320 120.08203 C 320.046 125.58903 324.526 130 330 130 L 410 130 L 410 480 L 110 480 L 110 40 z M 339.44727 53.589844 L 395.85742 110 L 339.91797 110 L 339.44727 53.589844 z M 208.13086 213.73828 C 199.33886 213.73828 191.49356 215.42411 184.60156 218.78711 C 170.81756 225.51611 161.1805 236.66903 156.1875 250.45703 C 151.0225 264.71003 151.26467 279.18211 156.51367 293.03711 C 161.87567 307.20111 171.60584 318.94366 185.08984 325.84766 C 196.13084 331.50366 208.85422 332.27355 221.07422 329.18555 C 234.70422 325.74055 247.99148 317.27633 253.39648 304.11133 L 231.41406 291.24805 C 229.32706 296.88205 225.86531 300.93102 221.32031 303.54102 C 213.79731 307.86902 204.07414 308.64147 196.24414 304.35547 C 192.76814 302.45747 189.81309 299.87609 187.37109 296.62109 C 180.53409 287.50109 177.4527 273.7582 181.3457 259.6582 C 183.5757 251.5912 188.02247 244.81242 195.10547 240.60742 C 199.57447 237.95542 206.02922 236.56409 214.07422 238.24609 C 218.62722 239.19909 223.07247 241.62433 226.85547 245.73633 C 228.69947 247.74633 230.21806 250.26964 231.41406 253.30664 L 251.93164 238.97852 C 248.23964 231.48852 242.59409 225.40923 234.99609 220.74023 C 227.39709 216.07423 218.44286 213.73828 208.13086 213.73828 z M 253.39844 214 L 297.6875 330 L 319.99414 330 L 363.95703 214 L 335.78906 214 L 308.92383 296.06445 L 281.56641 214 L 253.39844 214 z"/></svg>