<svg xmlns="http://www.w3.org/2000/svg"  viewBox="0 0 64 64" width="48px" height="48px"><path d="M 36.332031 9.2460938 C 35.051531 9.2462188 33.770875 9.7330312 32.796875 10.707031 L 15.230469 28.275391 C 14.937469 28.567391 14.743828 28.943562 14.673828 29.351562 L 11.027344 50.664062 C 10.918344 51.303063 11.126938 51.956063 11.585938 52.414062 C 11.963937 52.792063 12.614891 53.084656 13.337891 52.972656 L 34.650391 49.326172 C 35.058391 49.256172 35.433563 49.062531 35.726562 48.769531 L 53.294922 31.201172 C 55.241922 29.252172 55.240969 26.081813 53.292969 24.132812 L 39.867188 10.707031 C 38.892187 9.7325313 37.612531 9.2459687 36.332031 9.2460938 z M 36.332031 13.242188 C 36.588031 13.241938 36.843563 13.339656 37.039062 13.535156 L 50.464844 26.960938 C 50.854844 27.350938 50.854844 27.985 50.464844 28.375 L 35.574219 43.263672 C 34.596385 39.65353 31.761951 37.178239 27.570312 36.431641 C 26.823464 32.237797 24.346244 29.404678 20.734375 28.427734 L 35.625 13.535156 C 35.8205 13.340656 36.076031 13.242437 36.332031 13.242188 z M 18.265625 32.078125 C 21.283145 32.247309 23.103784 33.969193 23.650391 37.242188 C 23.915391 38.835188 25.165766 40.083609 26.759766 40.349609 C 30.031811 40.895267 31.752694 42.716003 31.921875 45.734375 L 20.404297 47.705078 L 16.294922 43.595703 L 18.265625 32.078125 z"/></svg>