<svg xmlns="http://www.w3.org/2000/svg" xmlns:xlink="http://www.w3.org/1999/xlink" version="1.1" id="Capa_1" xml:space="preserve" fill="#000000" viewBox="0.25 13.27 297 270.96">

<g id="SVGRepo_bgCarrier" stroke-width="0"/>

<g id="SVGRepo_tracerCarrier" stroke-linecap="round" stroke-linejoin="round"/>

<g id="SVGRepo_iconCarrier"> <g> <g id="XMLID_39_"> <g> <path style="fill:#4c4a48;" d="M96.67,162.7c4.27,0,7.75,3.48,7.75,7.75s-3.48,7.75-7.75,7.75c-4.27,0-7.75-3.48-7.75-7.75 S92.4,162.7,96.67,162.7z"/> <path style="fill:#4c4a48;" d="M200.84,162.7c4.27,0,7.75,3.48,7.75,7.75s-3.48,7.75-7.75,7.75c-4.28,0-7.75-3.48-7.75-7.75 S196.56,162.7,200.84,162.7z"/> <path style="fill:#4c4a48;" d="M148.75,41.17c11.41,0,21.05,7.65,24.1,18.08c-7.77-1.68-15.83-2.58-24.1-2.58 c-8.26,0-16.33,0.9-24.1,2.58C127.7,48.82,137.35,41.17,148.75,41.17z"/> <path style="fill:#c3332c;" d="M158.36,76.38c47.64,4.83,84.95,45.18,84.95,94.07s-37.31,89.24-84.95,94.07V76.38z M227.81,170.45c0-14.87-12.1-26.97-26.97-26.97c-14.88,0-26.98,12.1-26.98,26.97c0,14.87,12.1,26.97,26.98,26.97 C215.71,197.42,227.81,185.32,227.81,170.45z M200.84,109.69c0-4.8-3.89-8.68-8.68-8.68c-4.8,0-8.68,3.88-8.68,8.68 c0,4.79,3.88,8.68,8.68,8.68C196.95,118.37,200.84,114.48,200.84,109.69z M200.84,231.21c0-4.79-3.89-8.68-8.68-8.68 c-4.8,0-8.68,3.89-8.68,8.68c0,4.8,3.88,8.69,8.68,8.69C196.95,239.9,200.84,236.01,200.84,231.21z"/> <path style="fill:#c3332c;" d="M139.14,76.38v188.14c-47.64-4.83-84.94-45.18-84.94-94.07S91.5,81.21,139.14,76.38z M123.64,170.45c0-14.87-12.1-26.97-26.97-26.97s-26.97,12.1-26.97,26.97c0,14.87,12.1,26.97,26.97,26.97 S123.64,185.32,123.64,170.45z M114.03,109.69c0-4.8-3.89-8.68-8.68-8.68s-8.68,3.88-8.68,8.68c0,4.79,3.89,8.68,8.68,8.68 S114.03,114.48,114.03,109.69z M114.03,231.21c0-4.79-3.89-8.68-8.68-8.68s-8.68,3.89-8.68,8.68c0,4.8,3.89,8.69,8.68,8.69 S114.03,236.01,114.03,231.21z"/> <path d="M287.64,160.84c5.31,0,9.61,4.3,9.61,9.61s-4.3,9.61-9.61,9.61h-25.52c-1.66,19.82-8.42,38.2-18.97,53.84l16.57,16.56 c3.75,3.75,3.75,9.84,0,13.59c-1.88,1.88-4.34,2.82-6.8,2.82c-2.46,0-4.92-0.94-6.8-2.82l-15.09-15.09 c-20.73,21.72-49.95,35.27-82.28,35.27c-32.32,0-61.54-13.55-82.27-35.27l-15.1,15.09c-1.87,1.88-4.33,2.82-6.79,2.82 s-4.92-0.94-6.8-2.82c-3.75-3.75-3.75-9.84,0-13.59l16.56-16.56c-10.54-15.64-17.3-34.02-18.96-53.84H9.86 c-5.3,0-9.61-4.3-9.61-9.61s4.31-9.61,9.61-9.61h25.53c1.66-19.81,8.42-38.2,18.96-53.84L37.79,90.44 c-3.75-3.75-3.75-9.84,0-13.59s9.84-3.75,13.59,0l15.1,15.09c10.65-11.16,23.55-20.16,37.96-26.28 c0.08-6.29,1.49-12.26,3.94-17.66L89.87,29.68c-3.75-3.75-3.75-9.84,0-13.59c3.76-3.76,9.84-3.76,13.6,0l16.51,16.51 c7.75-6.63,17.8-10.65,28.77-10.65c10.98,0,21.03,4.02,28.78,10.65l16.51-16.51c3.75-3.76,9.84-3.76,13.59,0 c3.76,3.75,3.76,9.84,0,13.59L189.13,48c2.45,5.4,3.85,11.37,3.94,17.66c14.41,6.12,27.31,15.12,37.96,26.28l15.09-15.09 c3.76-3.75,9.84-3.75,13.6,0c3.75,3.75,3.75,9.84,0,13.59L243.15,107c10.55,15.64,17.31,34.03,18.97,53.84H287.64z M243.31,170.45c0-48.89-37.31-89.24-84.95-94.07v188.14C206,259.69,243.31,219.34,243.31,170.45z M172.85,59.25 c-3.05-10.43-12.69-18.08-24.1-18.08c-11.4,0-21.05,7.65-24.1,18.08c7.77-1.68,15.84-2.58,24.1-2.58 C157.02,56.67,165.08,57.57,172.85,59.25z M139.14,264.52V76.38C91.5,81.21,54.2,121.56,54.2,170.45S91.5,259.69,139.14,264.52z"/> <path d="M200.84,143.48c14.87,0,26.97,12.1,26.97,26.97c0,14.87-12.1,26.97-26.97,26.97c-14.88,0-26.98-12.1-26.98-26.97 C173.86,155.58,185.96,143.48,200.84,143.48z M208.59,170.45c0-4.27-3.48-7.75-7.75-7.75c-4.28,0-7.75,3.48-7.75,7.75 s3.47,7.75,7.75,7.75C205.11,178.2,208.59,174.72,208.59,170.45z"/> <path d="M192.16,101.01c4.79,0,8.68,3.88,8.68,8.68c0,4.79-3.89,8.68-8.68,8.68c-4.8,0-8.68-3.89-8.68-8.68 C183.48,104.89,187.36,101.01,192.16,101.01z"/> <path d="M192.16,222.53c4.79,0,8.68,3.89,8.68,8.68c0,4.8-3.89,8.69-8.68,8.69c-4.8,0-8.68-3.89-8.68-8.69 C183.48,226.42,187.36,222.53,192.16,222.53z"/> <path d="M96.67,143.48c14.87,0,26.97,12.1,26.97,26.97c0,14.87-12.1,26.97-26.97,26.97s-26.97-12.1-26.97-26.97 C69.7,155.58,81.8,143.48,96.67,143.48z M104.42,170.45c0-4.27-3.48-7.75-7.75-7.75c-4.27,0-7.75,3.48-7.75,7.75 s3.48,7.75,7.75,7.75C100.94,178.2,104.42,174.72,104.42,170.45z"/> <path d="M105.35,101.01c4.79,0,8.68,3.88,8.68,8.68c0,4.79-3.89,8.68-8.68,8.68s-8.68-3.89-8.68-8.68 C96.67,104.89,100.56,101.01,105.35,101.01z"/> <path d="M105.35,222.53c4.79,0,8.68,3.89,8.68,8.68c0,4.8-3.89,8.69-8.68,8.69s-8.68-3.89-8.68-8.69 C96.67,226.42,100.56,222.53,105.35,222.53z"/> </g> <g> </g> </g> </g> </g>

</svg>